<?xml version="1.0" encoding="utf-8"?>
<!-- Generator: Adobe Illustrator 23.0.5, SVG Export Plug-In . SVG Version: 6.00 Build 0)  -->
<svg version="1.1" id="Слой_1" xmlns="http://www.w3.org/2000/svg" xmlns:xlink="http://www.w3.org/1999/xlink" x="0px" y="0px"
	 viewBox="0 0 196 162" style="enable-background:new 0 0 196 162;" xml:space="preserve">
<g>
	<path d="M170,61.4c-17.7,0-34,0-50.3,0c-1,0-1.9,0.2-3.3,0.4c0,13.3-0.2,26.4,0,39.5c0.5,24.8-14.4,47.7-37,56.6
		c-38.4,15-78.5-13.1-79.7-54.2C-1.1,78,19.9,46,58,45.1C71.5,44.7,85,45,99,45c0.1-2,0.3-3.8,0.3-5.5c0-9,0-18,0-27
		c0-2,0.3-5.7,0.9-7.3c1.6-3.8,3.2-4.9,6.3-5c3.8-0.1,6.8,1.4,8.2,5c0.8,1.9,1,4.2,1,6.3c0.1,10.9,0,21.9,0,33.4c2.5,0,4.2,0,6,0
		c21,0,42,0,63,0c4,0,8.5-0.3,10.5,4.1c2,4.4,0.1,8.3-2.8,11.9c-20.3,25.2-40.5,50.4-60.7,75.6c-1.6,2.1-3.2,4.2-5.7,7.4
		c2.9,0,4.6,0,6.3,0c18,0,36,0,54,0c6.4,0,9.3,2.3,9.6,7c0.4,6.3-2,9.1-8.8,9.3c-10.2,0.3-20.3,0.2-30.5,0.2c-15,0-30,0-45,0
		c-4.2,0-8.5,0-10.7-4.7c-2.2-4.6,0.2-8,2.9-11.3c20.4-25.5,40.7-51.1,61-76.6C166.4,66.2,167.8,64.3,170,61.4z M58.2,61.9
		c-23-0.3-41.6,17.9-42,41.3c-0.4,23.3,17.4,41.4,41.2,41.8c23.7,0.4,42-17.5,42.2-41.3C99.8,80.4,81.7,62.2,58.2,61.9z M99.2,70.3
		c5.1-0.1,9-4.3,8.8-9.4c-0.2-4.8-4.2-8.8-9-8.8c-5,0-9.2,4.2-9.1,9.2C90,66.4,94.1,70.4,99.2,70.3z"/>
</g>
</svg>
